<?xml version="1.0" encoding="UTF-8"?>
<svg id="_Слой_2" data-name="Слой 2" xmlns="http://www.w3.org/2000/svg" viewBox="0 0 40 40">
  <defs>
    <style>
      .cls-1 {
        fill: #fff;
      }

      .cls-2 {
        fill: #b1b3b5;
      }

      .cls-3 {
        fill: #ef3124;
      }
    </style>
  </defs>
  <g id="label">
    <g id="alfa_bank_input">
      <path class="cls-3" d="M23.96.4h-7.95C8.16,1.99,1.96,8.2.39,16.06v7.9c1.59,7.87,7.81,14.08,15.69,15.65h7.84c7.89-1.57,14.12-7.8,15.69-15.69v-7.84c-1.57-7.88-7.78-14.1-15.65-15.68Z"/>
      <g>
        <rect class="cls-1" x="12.53" y="28.17" width="14.95" height="3.15"/>
        <path class="cls-1" d="M22.62,10.37c-.4-1.01-1.36-1.68-2.4-1.69-1.18-.01-2.25.82-2.57,2.01l-4.78,13.26h3.25l.88-3.02h5.91l1.01,3.02h3.22l-4.52-13.58ZM17.97,18.33l2.05-6.21h.16l1.98,6.21h-4.19Z"/>
      </g>
      <path class="cls-2" d="M39.61,16.08c-1.57-7.88-7.78-14.1-15.65-15.68-1.28-.26-2.6-.4-3.96-.4s-2.7.14-3.99.4C8.16,1.99,1.96,8.2.39,16.06c-.26,1.27-.39,2.59-.39,3.94s.14,2.68.4,3.96c1.58,7.87,7.8,14.08,15.68,15.65,1.27.26,2.58.39,3.92.39s2.65-.13,3.92-.39c7.89-1.57,14.12-7.8,15.69-15.69.26-1.27.39-2.58.39-3.92s-.13-2.65-.39-3.92ZM20,39C9.52,39,1,30.48,1,20S9.52,1,20,1s19,8.52,19,19-8.52,19-19,19Z"/>
    </g>
  </g>
</svg>