<svg width="8" height="21" viewBox="0 0 8 21" fill="none" xmlns="http://www.w3.org/2000/svg">
<path fill-rule="evenodd" clip-rule="evenodd" d="M7.21757 17.6716L4.03559 20.8536C3.84033 21.0488 3.52374 21.0488 3.32848 20.8536L0.1465 17.6716C-0.0487623 17.4763 -0.0487623 17.1597 0.1465 16.9645C0.341762 16.7692 0.658345 16.7692 0.853607 16.9645L3.18203 19.2929L3.18203 0.5C3.18203 0.223858 3.40589 1.73015e-07 3.68203 1.60945e-07C3.95818 1.48874e-07 4.18203 0.223858 4.18203 0.5L4.18203 19.2929L6.51046 16.9645C6.70572 16.7692 7.02231 16.7692 7.21757 16.9645C7.41283 17.1597 7.41283 17.4763 7.21757 17.6716Z" fill="#EA5C5A"/>
</svg>
