<?xml version="1.0" encoding="UTF-8"?>
<svg id="_Слой_2" data-name="Слой 2" xmlns="http://www.w3.org/2000/svg" viewBox="0 0 40 40">
  <defs>
    <style>
      .cls-1 {
        fill: #476bf0;
      }

      .cls-2, .cls-3 {
        fill: #fff;
      }

      .cls-3 {
        fill-rule: evenodd;
      }

      .cls-4 {
        fill: #f6f7f8;
      }
    </style>
  </defs>
  <g id="label">
    <g id="bank_gaz">
      <path class="cls-4" d="M31.7,40H8.3c-4.57,0-8.3-3.72-8.3-8.3V8.3C0,3.72,3.72,0,8.3,0h23.41c4.58,0,8.3,3.72,8.3,8.3v23.41c0,4.58-3.72,8.3-8.3,8.3ZM.79,8.3v23.41"/>
      <rect class="cls-1" x="1.24" y="1.24" width="37.52" height="37.52" rx="7.06" ry="7.06"/>
      <g>
        <path class="cls-3" d="M19.36,14.23c6.06.03,12.81,4.3,12.81,6.54,0,3.26-3.73,3.47-12.22,3.09-7.37-.33-8.75.5-8.78,2.81-.03,2.11,5.1,4.37,11.88,4.27-1.85.5-3.77.65-5.72.22-3.35-.74-7.11-3.01-7.14-4.85-.06-3.9,6.42-4.3,9.84-4.18,4.15.15,10.38.36,10.48-1.65.15-2.86-7.42-5.54-11.1-5.53l-.05-.71h0Z"/>
        <path class="cls-3" d="M13.96,9.97c.96-.73,2.87-1.38,5.65-1.39,6.2-.01,9.28,2.68,9.4,4.51.16,2.27-2.6,3.05-9.2,2.68-6.79-.38-11.09,0-11.13,1.93-.04,2.13,8.46,7.28,14.65,7.28,4.26,0,6.63-.81,7.91-1.44-.21.61-.47,1.19-.78,1.75-1.74.33-4.08.7-7.16.57-5.07-.21-15.46-4.68-15.46-8.17s8.25-3.93,11.87-3.93,8.05.78,7.85-1.36-4.16-2.85-6.56-3.05c-2.4-.2-5.07.17-7.04.61h0Z"/>
        <path class="cls-3" d="M10.24,12.95c.63-.72,1.05-1.17,1.9-1.8.95-.43,3.54-1.13,7.68-1.11,6.33.03,10.94,3.15,10.98,5.26.04,2.71-3.36,3.62-10.94,3.23-7.09-.37-10.85.09-10.89,2.12-.04,2.24,7.78,6.85,14.24,6.7,3.14-.08,5.15-.49,6.54-.96-.4.55-.84,1.06-1.32,1.53-1.47.25-3.2.44-5.12.36-5.3-.22-15.46-4.32-15.46-7.99s8.35-3.53,12.12-3.4c4.15.14,9.19.04,9.2-1.98.01-2.58-6.73-4.03-9.5-4.02-4.42.02-6.67.81-9.45,2.06h0Z"/>
        <path class="cls-3" d="M8.64,15.49c.28-.56.47-.96.83-1.5,2.51-1.21,5.55-1.77,9.7-1.75,6.06.03,12.58,3.52,12.58,5.76,0,3.26-3.36,3.51-11.85,3.14-7.37-.33-10.17.46-10.2,2.76-.03,2.24,7.05,5.52,13.51,5.37,1.62-.04,2.95-.17,4.04-.35-.66.5-1.37.92-2.12,1.28-.58.02-1.19.03-1.81,0-5.3-.22-14.72-2.99-14.72-6.66,0-3.9,7.66-4.17,11.44-4.04,4.15.14,10.06.22,10.07-1.79.01-2.58-7.19-4.76-10.87-4.75-4.42.01-8.03,1.2-10.58,2.54h0Z"/>
      </g>
      <path class="cls-2" d="M20,36.63c-9.17,0-16.63-7.46-16.63-16.63S10.83,3.37,20,3.37s16.63,7.46,16.63,16.63-7.46,16.63-16.63,16.63ZM20,4.07c-8.78,0-15.93,7.14-15.93,15.93s7.14,15.93,15.93,15.93,15.93-7.14,15.93-15.93-7.14-15.93-15.93-15.93Z"/>
    </g>
  </g>
</svg>