<?xml version="1.0" encoding="UTF-8"?>
<svg id="_Слой_2" data-name="Слой 2" xmlns="http://www.w3.org/2000/svg" viewBox="0 0 40 40">
  <defs>
    <style>
      .cls-1 {
        fill: #fff;
      }

      .cls-2 {
        fill: #2873e4;
      }

      .cls-3 {
        fill: #f6f7f8;
      }
    </style>
  </defs>
  <g id="label">
    <g id="bank_vtb">
      <path class="cls-1" d="M31.64,39.89H8.36C3.81,39.89.11,36.19.11,31.64V8.36C.11,3.81,3.81.11,8.36.11h23.28c4.55,0,8.25,3.7,8.25,8.25v23.28c0,4.55-3.7,8.25-8.25,8.25Z"/>
      <path class="cls-3" d="M31.7,40H8.3c-4.57,0-8.3-3.72-8.3-8.3V8.3C0,3.72,3.72,0,8.3,0h23.41c4.58,0,8.3,3.72,8.3,8.3v23.41c0,4.58-3.72,8.3-8.3,8.3ZM8.3.79C4.16.79.79,4.16.79,8.3v23.41c0,4.14,3.37,7.51,7.51,7.51h23.41c4.14,0,7.51-3.37,7.51-7.51V8.3c0-4.14-3.37-7.51-7.51-7.51H8.3Z"/>
      <g>
        <path class="cls-2" d="M33.03,15.04H11.18c-.66,0-1.11-.65-.89-1.27l.89-2.48c.23-.63.82-1.05,1.49-1.05h21.47c.6,0,1.01.59.81,1.15l-1.11,3.07c-.12.34-.45.57-.81.57Z"/>
        <path class="cls-2" d="M27.8,29.75H5.95c-.66,0-1.11-.65-.89-1.27l.89-2.48c.23-.63.82-1.05,1.49-1.05h21.47c.6,0,1.01.59.81,1.15l-1.11,3.07c-.12.34-.45.57-.81.57Z"/>
        <path class="cls-2" d="M30.47,22.39H8.62c-.66,0-1.11-.65-.89-1.27l.89-2.48c.23-.63.82-1.05,1.49-1.05h21.47c.6,0,1.01.59.81,1.15l-1.11,3.07c-.12.34-.45.57-.81.57Z"/>
      </g>
    </g>
  </g>
</svg>