<?xml version="1.0" encoding="UTF-8"?>
<svg id="_Слой_2" data-name="Слой 2" xmlns="http://www.w3.org/2000/svg" viewBox="0 0 40 40">
  <defs>
    <style>
      .cls-1 {
        fill: #fff;
      }

      .cls-2 {
        fill: #ef3124;
      }

      .cls-3 {
        fill: #f6f7f8;
      }
    </style>
  </defs>
  <g id="label">
    <g id="bank_alfa">
      <path class="cls-2" d="M39.61,32.4c-.23,3.9-3.23,6.97-7.14,7.21H7.47c-3.79-.24-6.85-3.29-7.08-7.08V7.54C.61,3.72,3.61.66,7.43.41l25.1-.02c3.89.3,6.85,3.3,7.08,7.21"/>
      <g>
        <rect class="cls-1" x="11.94" y="28.81" width="16.12" height="3.4"/>
        <path class="cls-1" d="M22.82,9.61c-.43-1.09-1.46-1.81-2.59-1.82-1.27-.01-2.43.88-2.77,2.17l-5.15,14.3h3.5l.95-3.26h6.38l1.09,3.26h3.47l-4.87-14.65ZM17.81,18.2l2.21-6.69h.18l2.14,6.69h-4.52Z"/>
      </g>
      <path class="cls-3" d="M31.7,40H8.3c-4.57,0-8.3-3.72-8.3-8.3V8.3C0,3.72,3.72,0,8.3,0h23.41c4.58,0,8.3,3.72,8.3,8.3v23.41c0,4.58-3.72,8.3-8.3,8.3ZM8.3.79C4.16.79.79,4.16.79,8.3v23.41c0,4.14,3.37,7.51,7.51,7.51h23.41c4.14,0,7.51-3.37,7.51-7.51V8.3c0-4.14-3.37-7.51-7.51-7.51H8.3Z"/>
    </g>
  </g>
</svg>