<?xml version="1.0" encoding="UTF-8"?>
<svg id="_Слой_2" data-name="Слой 2" xmlns="http://www.w3.org/2000/svg" viewBox="0 0 40 40">
  <defs>
    <style>
      .cls-1 {
        fill: #ffdd2d;
      }
    </style>
  </defs>
  <g id="label">
    <g id="checkbox_circle_small_activated">
      <path d="M20,4h0c8.84,0,16,7.16,16,16h0c0,8.84-7.16,16-16,16h0c-8.84,0-16-7.16-16-16h0C4,11.16,11.16,4,20,4Z"/>
      <path class="cls-1" d="M20,40C8.97,40,0,31.03,0,20S8.97,0,20,0s20,8.97,20,20-8.97,20-20,20ZM20,8c-6.62,0-12,5.38-12,12s5.38,12,12,12,12-5.38,12-12-5.38-12-12-12Z"/>
    </g>
  </g>
</svg>