<?xml version="1.0" encoding="UTF-8"?>
<svg id="_Слой_2" data-name="Слой 2" xmlns="http://www.w3.org/2000/svg" viewBox="0 0 40 40">
  <defs>
    <style>
      .cls-1 {
        fill: #fc0;
      }

      .cls-2 {
        fill: #039;
      }
    </style>
  </defs>
  <g id="label">
    <g id="euro">
      <path class="cls-2" d="M18.93.03c10.84-.59,20.2,7.66,21.02,18.47.66,8.78-4.59,17.05-12.77,20.18-10.13,3.87-21.55-1.06-25.65-11.03C-3.73,14.87,5.22.77,18.93.03ZM19.45,6h-1.46l1.21.94-.47,1.45,1.25-.89,1.26.89-.44-1.45,1.21-.94h-1.46c-.12,0-.34-.88-.4-1.04l-.19-.4c-.12.21-.37,1.39-.53,1.43ZM13.85,7.81l-.5-1.43c-.1,0-.38,1.32-.58,1.43h-1.41c.14.21,1.1.72,1.16.88.07.21-.48,1.39-.42,1.45l1.25-.85,1.22.9c.13,0-.49-1.35-.39-1.5l1.16-.89h-1.48ZM26.08,7.81h-1.41l1.16.89c.07.14-.52,1.49-.39,1.5l1.22-.9,1.25.85-.42-1.45,1.16-.88h-1.41s-.12-.05-.13-.09l-.37-1.34h-.16c-.01.23-.34,1.39-.5,1.43ZM7.78,12.69c-.38.06-.9-.05-1.3,0l1.16.88-.42,1.45,1.25-.85,1.25.85c.05-.07-.49-1.29-.43-1.51l1.17-.83h-1.35c-.26,0-.49-1.2-.58-1.43-.09-.01-.11.07-.14.13-.14.31-.2.9-.38,1.16-.04.07-.16.13-.23.14ZM33.53,12.69h-1.25s-.23-.08-.26-.11c-.16-.17-.28-.93-.4-1.2-.03-.06-.05-.14-.14-.13-.15.47-.24,1.03-.53,1.43h-1.41c.14.2,1.11.73,1.16.89.06.19-.1.36-.15.52-.09.31-.19.62-.27.93.28-.08,1.02-.85,1.25-.85.16,0,1.19.91,1.24.85l-.42-1.45,1.16-.89ZM8.66,19.32h-1.46l-.48-1.49-.5,1.49h-1.48c.07.21.37.3.54.43.19.14.39.34.6.47l-.4,1.44,1.2-.84,1.21.84-.39-1.4,1.16-.94ZM33.79,19.32c-.08,0-.3-1.34-.53-1.43-.11.39-.22.92-.39,1.29-.03.06-.07.11-.12.15h-1.46l1.21.94-.44,1.45,1.26-.9,1.2.84c.08-.09-.46-1.2-.39-1.44l1.14-.9h-1.48ZM7.89,26.01c-.39.07-.94-.05-1.35,0,.32.33.73.58,1.12.83l-.4,1.56,1.22-.9,1.25.9-.43-1.56c.4-.22.79-.51,1.12-.83h-1.35c-.27-.4-.42-.95-.5-1.43h-.16s-.37,1.34-.37,1.34c-.01.04-.1.09-.13.09ZM30.96,26.01h-1.35c.11.25,1.05.71,1.11.88.06.19-.1.36-.15.52-.1.32-.21.65-.27.98l1.25-.9,1.13.77.08.13c.12,0-.5-1.41-.4-1.56.4-.24.77-.51,1.12-.83h-1.41c-.21-.43-.4-.96-.45-1.43h-.16c0,.22-.37,1.4-.5,1.43ZM15.26,30.84c-.33-.08-1,.06-1.38,0-.12,0-.39-1.13-.45-1.3-.02-.06-.02-.13-.1-.13l-.5,1.43h-1.38s-.09.08-.08.11l1.17.78c.07.21-.48,1.44-.43,1.51l1.25-.85,1.25.85-.42-1.45c.04-.14.75-.57.91-.68.07-.05.09-.18.25-.16.01-.02-.06-.1-.08-.11ZM28.65,30.84l-1.43.03c-.21-.12-.48-1.46-.56-1.46l-.5,1.41c-.5.05-.99.06-1.49.03l.25.26.92.62-.43,1.51,1.25-.85,1.25.85c-.11-.32-.18-.65-.28-.97-.05-.16-.22-.28-.15-.54.01-.05.13-.04.19-.08.24-.18.45-.41.73-.53l.25-.26ZM19.45,32.64c-.33.06-.96,0-1.33,0-.02,0-.06-.07-.1-.05v.11s1.18.88,1.18.88l-.47,1.45,1.25-.85c.19-.03,1.24.91,1.3.85l-.47-1.45c.05-.19,1.03-.7,1.19-.89.03-.04.06-.09,0-.11-.05-.01-.09.05-.1.05h-1.33s-.12-.06-.13-.09c-.1-.24-.15-.69-.26-.94l-.19-.4-.4,1.34s-.1.09-.13.09Z"/>
      <path class="cls-1" d="M15.26,30.84s.09.09.08.11c-.16-.02-.19.11-.25.16-.16.11-.87.54-.91.68l.42,1.45-1.25-.85-1.25.85c-.05-.07.5-1.3.43-1.51l-1.17-.78s.07-.11.08-.11h1.38l.5-1.43c.08,0,.08.08.1.13.06.17.33,1.3.45,1.3.38.06,1.04-.08,1.38,0Z"/>
      <path class="cls-1" d="M19.45,32.64s.12-.05.13-.09l.4-1.34.19.4c.12.26.16.71.26.94.02.04.11.09.13.09h1.33s.06-.07.1-.05c.06.02.03.07,0,.11-.15.19-1.14.69-1.19.89l.47,1.45c-.05.06-1.11-.88-1.3-.85l-1.25.85.47-1.45-1.19-.88v-.11s.09.05.11.05c.37,0,1,.06,1.33,0Z"/>
      <path class="cls-1" d="M28.65,30.84l-.25.26c-.28.13-.49.35-.73.53-.06.05-.17.04-.19.08-.07.26.1.38.15.54.1.32.17.65.28.97l-1.25-.85-1.25.85.43-1.51-.92-.62-.25-.26c.5.04.99.03,1.49-.03l.5-1.41c.08,0,.34,1.34.56,1.46l1.43-.03Z"/>
      <path class="cls-1" d="M33.79,19.32h1.48l-1.14.9c-.07.23.47,1.34.39,1.44l-1.2-.84-1.26.9.44-1.45-1.21-.94h1.46c.05-.04.09-.08.12-.15.16-.37.28-.9.39-1.29.23.1.45,1.43.53,1.43Z"/>
      <path class="cls-1" d="M19.45,6c.16-.05.41-1.22.53-1.43l.19.4c.05.16.27,1.04.4,1.04h1.46l-1.21.94.44,1.45-1.26-.89-1.25.89.47-1.45-1.21-.94h1.46Z"/>
      <path class="cls-1" d="M8.66,19.32l-1.16.94.39,1.4-1.21-.84-1.2.84.4-1.44c-.2-.14-.41-.34-.6-.47-.17-.13-.48-.21-.54-.43h1.48l.5-1.49.48,1.49h1.46Z"/>
      <path class="cls-1" d="M13.85,7.81h1.48l-1.16.89c-.1.15.52,1.49.39,1.5l-1.22-.9-1.25.85c-.06-.06.49-1.24.42-1.45-.06-.17-1.02-.67-1.16-.88h1.41c.21-.12.49-1.43.58-1.43l.5,1.43Z"/>
      <path class="cls-1" d="M26.08,7.81c.17-.05.49-1.2.5-1.43h.16s.37,1.34.37,1.34c0,.04.11.09.13.09h1.41l-1.16.88.42,1.45-1.25-.85-1.22.9c-.12,0,.46-1.36.39-1.5l-1.16-.89h1.41Z"/>
      <path class="cls-1" d="M33.53,12.69l-1.16.89.42,1.45c-.05.07-1.08-.84-1.24-.85-.22,0-.96.76-1.25.85.08-.31.17-.62.27-.93.05-.16.21-.33.15-.52-.05-.15-1.02-.68-1.16-.89h1.41c.29-.4.38-.96.53-1.43.09-.01.11.07.14.13.12.27.23,1.03.4,1.2.03.03.23.11.26.11h1.25Z"/>
      <path class="cls-1" d="M7.89,26.01s.12-.05.13-.09l.37-1.34h.16c.09.48.24,1.04.5,1.43h1.35c-.32.31-.72.61-1.12.83l.43,1.56-1.25-.9-1.22.9.4-1.56c-.39-.25-.8-.5-1.12-.83.41-.05.96.07,1.35,0Z"/>
      <path class="cls-1" d="M7.78,12.69c.07-.01.18-.08.23-.14.18-.26.24-.85.38-1.16.03-.06.05-.14.14-.13.09.23.32,1.43.58,1.43h1.35l-1.17.83c-.06.22.48,1.44.43,1.51l-1.25-.85-1.25.85.42-1.45-1.16-.88c.39-.05.92.06,1.3,0Z"/>
      <path class="cls-1" d="M30.96,26.01c.13-.04.5-1.21.5-1.43h.16c.06.47.24,1,.45,1.43h1.41c-.34.32-.72.59-1.12.83-.1.15.52,1.55.4,1.56l-.08-.13-1.13-.77-1.25.9c.06-.33.17-.66.27-.98.05-.16.21-.34.15-.52s-1-.64-1.11-.88h1.35Z"/>
    </g>
  </g>
</svg>