<?xml version="1.0" encoding="UTF-8"?>
<svg id="_Слой_2" data-name="Слой 2" xmlns="http://www.w3.org/2000/svg" viewBox="0 0 40 40">
  <defs>
    <style>
      .cls-1 {
        fill: #fff;
      }

      .cls-2 {
        fill: #bb133e;
      }

      .cls-3 {
        fill: #002664;
      }
    </style>
  </defs>
  <g id="label">
    <g id="flagusa">
      <g>
        <circle class="cls-1" cx="20" cy="20" r="20"/>
        <path class="cls-2" d="M37,9.46H3c.67-1.07,1.43-2.08,2.28-3h29.43c.85.92,1.62,1.93,2.28,3Z"/>
        <path class="cls-2" d="M39.48,15.46H.52c.24-1.03.56-2.04.95-3h37.06c.39.97.71,1.97.95,3Z"/>
        <path class="cls-2" d="M40,20c0,.51-.02,1.02-.06,1.53H.06c-.04-.5-.06-1.01-.06-1.53s.02-.99.05-1.48h39.89c.04.49.05.98.05,1.48Z"/>
        <path class="cls-2" d="M39.48,24.53c-.24,1.03-.56,2.04-.95,3H1.47c-.39-.97-.71-1.97-.95-3h38.97Z"/>
        <path class="cls-2" d="M37.01,30.53c-.67,1.07-1.43,2.08-2.28,3H5.27c-.85-.92-1.61-1.93-2.28-3h34.01Z"/>
        <path class="cls-2" d="M31.16,36.6c-3.19,2.15-7.03,3.4-11.16,3.4s-7.97-1.25-11.16-3.4h22.33Z"/>
        <path class="cls-2" d="M31.24,3.45H8.76C11.96,1.27,15.83,0,20,0s8.04,1.27,11.24,3.45Z"/>
        <path class="cls-3" d="M12.45,1.47v20.05H.06C.02,21.02,0,20.51,0,20s.02-.99.05-1.48c.08-1.05.23-2.07.46-3.06.24-1.03.56-2.04.95-3,.43-1.05.94-2.05,1.53-3,.67-1.07,1.43-2.08,2.28-3,1.04-1.13,2.21-2.14,3.48-3,1.15-.78,2.38-1.45,3.69-1.98Z"/>
      </g>
      <g>
        <path class="cls-1" d="M10.4,2.61l.28.84-.73-.52-.73.52.12-.37c.57-.36,1.16-.69,1.77-.99h.03l-.73.52Z"/>
        <polygon class="cls-1" points="9.66 6.32 9.94 5.47 10.22 6.32 11.13 6.32 10.4 6.84 10.67 7.68 9.94 7.16 9.21 7.68 9.49 6.84 8.76 6.32 9.66 6.32"/>
        <polygon class="cls-1" points="9.66 10.55 9.94 9.7 10.22 10.55 11.13 10.55 10.4 11.07 10.67 11.91 9.94 11.39 9.21 11.91 9.49 11.07 8.76 10.55 9.66 10.55"/>
        <polygon class="cls-1" points="9.66 14.78 9.94 13.94 10.22 14.78 11.13 14.78 10.4 15.3 10.67 16.15 9.94 15.62 9.21 16.15 9.49 15.3 8.76 14.78 9.66 14.78"/>
        <polygon class="cls-1" points="9.66 19.01 9.94 18.17 10.22 19.01 11.13 19.01 10.4 19.53 10.67 20.38 9.94 19.86 9.21 20.38 9.49 19.53 8.76 19.01 9.66 19.01"/>
      </g>
      <g>
        <path class="cls-1" d="M7.86,4.72l.28.84-.73-.52-.73.52.23-.68h0c.27-.24.55-.46.83-.68h.86l-.73.52Z"/>
        <polygon class="cls-1" points="7.13 8.43 7.41 7.59 7.69 8.43 8.6 8.43 7.86 8.96 8.14 9.8 7.41 9.28 6.68 9.8 6.96 8.96 6.22 8.43 7.13 8.43"/>
        <polygon class="cls-1" points="7.13 12.67 7.41 11.82 7.69 12.67 8.6 12.67 7.86 13.19 8.14 14.03 7.41 13.51 6.68 14.03 6.96 13.19 6.22 12.67 7.13 12.67"/>
        <polygon class="cls-1" points="7.13 16.9 7.41 16.05 7.69 16.9 8.6 16.9 7.86 17.42 8.14 18.26 7.41 17.74 6.68 18.26 6.96 17.42 6.22 16.9 7.13 16.9"/>
      </g>
      <g>
        <path class="cls-1" d="M5.36,6.84l.28.84-.73-.52-.58.42c.31-.39.63-.76.96-1.12.04-.05.09-.09.13-.14h.68l-.73.52Z"/>
        <polygon class="cls-1" points="4.63 10.55 4.91 9.7 5.19 10.55 6.09 10.55 5.36 11.07 5.64 11.91 4.91 11.39 4.18 11.91 4.46 11.07 3.72 10.55 4.63 10.55"/>
        <polygon class="cls-1" points="4.63 14.78 4.91 13.94 5.19 14.78 6.09 14.78 5.36 15.3 5.64 16.15 4.91 15.62 4.18 16.15 4.46 15.3 3.72 14.78 4.63 14.78"/>
        <polygon class="cls-1" points="4.63 19.01 4.91 18.17 5.19 19.01 6.09 19.01 5.36 19.53 5.64 20.38 4.91 19.86 4.18 20.38 4.46 19.53 3.72 19.01 4.63 19.01"/>
      </g>
      <g>
        <path class="cls-1" d="M3.12,9.8l-.23-.16c.04-.06.07-.12.11-.18,0,0,0,0,0,0l.11.35Z"/>
        <path class="cls-1" d="M2.84,13.19l.28.84-.73-.52-.73.52.28-.84-.59-.42s.03-.07.04-.11h.72l.28-.84.28.84h.91l-.73.52Z"/>
        <polygon class="cls-1" points="2.11 16.9 2.39 16.05 2.67 16.9 3.57 16.9 2.84 17.42 3.12 18.26 2.39 17.74 1.65 18.26 1.93 17.42 1.2 16.9 2.11 16.9"/>
      </g>
      <g>
        <path class="cls-1" d="M.44,15.81l.11.34-.16-.11c.01-.08.03-.15.05-.23Z"/>
        <path class="cls-1" d="M1.01,14.78l-.39.28c.02-.09.05-.19.07-.28h.32Z"/>
        <path class="cls-1" d="M.27,19.53l.28.84L0,19.98c0-.39.01-.78.03-1.17l.07.2h.91l-.73.52Z"/>
      </g>
    </g>
  </g>
</svg>