<svg width="16" height="16" viewBox="0 0 16 16" fill="none" xmlns="http://www.w3.org/2000/svg">
<path fill-rule="evenodd" clip-rule="evenodd" d="M0.585786 0.585786C1.36683 -0.195262 2.63317 -0.195262 3.41421 0.585786L7.83333 5.00491L12.2525 0.585786C13.0335 -0.195262 14.2998 -0.195262 15.0809 0.585786C15.8619 1.36683 15.8619 2.63317 15.0809 3.41421L10.6618 7.83333L15.0809 12.2525C15.8619 13.0335 15.8619 14.2998 15.0809 15.0809C14.2998 15.8619 13.0335 15.8619 12.2525 15.0809L7.83333 10.6618L3.41421 15.0809C2.63317 15.8619 1.36683 15.8619 0.585786 15.0809C-0.195262 14.2998 -0.195262 13.0335 0.585786 12.2525L5.00491 7.83333L0.585786 3.41421C-0.195262 2.63317 -0.195262 1.36683 0.585786 0.585786Z" fill="black"/>
</svg>
