<?xml version="1.0" encoding="UTF-8"?>
<svg id="_Слой_2" data-name="Слой 2" xmlns="http://www.w3.org/2000/svg" xmlns:xlink="http://www.w3.org/1999/xlink" viewBox="0 0 40 40">
  <defs>
    <style>
      .cls-1 {
        fill: url(#_Безымянный_градиент_3);
      }

      .cls-1, .cls-2, .cls-3, .cls-4, .cls-5, .cls-6, .cls-7 {
        fill-rule: evenodd;
      }

      .cls-2 {
        fill: url(#_Безымянный_градиент_2);
      }

      .cls-3 {
        fill: #21a038;
      }

      .cls-4 {
        fill: url(#_Безымянный_градиент_5);
      }

      .cls-5 {
        fill: url(#_Безымянный_градиент_6);
      }

      .cls-8 {
        fill: #b1b3b5;
      }

      .cls-6 {
        fill: url(#_Безымянный_градиент_4);
      }

      .cls-7 {
        fill: url(#_Безымянный_градиент_7);
      }
    </style>
    <linearGradient id="_Безымянный_градиент_7" data-name="Безымянный градиент 7" x1="1232.15" y1="-1845.85" x2="1189.76" y2="-1511.77" gradientTransform="translate(-24.29 -23.16) scale(.03 -.03)" gradientUnits="userSpaceOnUse">
      <stop offset="0" stop-color="#f2e913"/>
      <stop offset=".15" stop-color="#f2e913"/>
      <stop offset=".3" stop-color="#e7e518"/>
      <stop offset=".58" stop-color="#cadb26"/>
      <stop offset=".89" stop-color="#a3cd39"/>
      <stop offset="1" stop-color="#a3cd39"/>
    </linearGradient>
    <linearGradient id="_Безымянный_градиент_2" data-name="Безымянный градиент 2" x1="1268.32" y1="-1191.5" x2="1566.5" y2="-1150.22" gradientTransform="translate(-24.29 -23.16) scale(.03 -.03)" gradientUnits="userSpaceOnUse">
      <stop offset="0" stop-color="#0fa8e0"/>
      <stop offset=".06" stop-color="#0fa8e0"/>
      <stop offset=".54" stop-color="#0099f9"/>
      <stop offset=".92" stop-color="#0291eb"/>
      <stop offset="1" stop-color="#0291eb"/>
    </linearGradient>
    <linearGradient id="_Безымянный_градиент_3" data-name="Безымянный градиент 3" x1="1532.4" y1="-1889.1" x2="1869.56" y2="-1861.41" gradientTransform="translate(-24.29 -23.16) scale(.03 -.03)" gradientUnits="userSpaceOnUse">
      <stop offset="0" stop-color="#a3cd39"/>
      <stop offset=".12" stop-color="#a3cd39"/>
      <stop offset=".29" stop-color="#86c339"/>
      <stop offset=".87" stop-color="#21a038"/>
      <stop offset="1" stop-color="#21a038"/>
    </linearGradient>
    <linearGradient id="_Безымянный_градиент_4" data-name="Безымянный градиент 4" x1="1540.36" y1="-1134.63" x2="1828.63" y2="-1164.74" gradientTransform="translate(-24.29 -23.16) scale(.03 -.03)" gradientUnits="userSpaceOnUse">
      <stop offset="0" stop-color="#0291eb"/>
      <stop offset=".05" stop-color="#0291eb"/>
      <stop offset=".79" stop-color="#0c8acb"/>
      <stop offset="1" stop-color="#0c8acb"/>
    </linearGradient>
    <linearGradient id="_Безымянный_градиент_5" data-name="Безымянный градиент 5" x1="1248.95" y1="-1843.28" x2="1562.73" y2="-1893.24" gradientTransform="translate(-24.29 -23.16) scale(.03 -.03)" gradientUnits="userSpaceOnUse">
      <stop offset="0" stop-color="#f2e913"/>
      <stop offset=".13" stop-color="#f2e913"/>
      <stop offset=".3" stop-color="#ebe716"/>
      <stop offset=".53" stop-color="#d9e01f"/>
      <stop offset=".8" stop-color="#bbd62d"/>
      <stop offset=".98" stop-color="#a3cd39"/>
      <stop offset="1" stop-color="#a3cd39"/>
    </linearGradient>
    <linearGradient id="_Безымянный_градиент_6" data-name="Безымянный градиент 6" x1="1194.16" y1="-1499.78" x2="1248.27" y2="-1172.63" gradientTransform="translate(-24.29 -23.16) scale(.03 -.03)" gradientUnits="userSpaceOnUse">
      <stop offset="0" stop-color="#a3cd39"/>
      <stop offset=".07" stop-color="#a3cd39"/>
      <stop offset=".26" stop-color="#81c55f"/>
      <stop offset=".92" stop-color="#0fa8e0"/>
      <stop offset="1" stop-color="#0fa8e0"/>
    </linearGradient>
  </defs>
  <g id="label">
    <g id="sb_bank_input">
      <path class="cls-8" d="M20,40C8.97,40,0,31.03,0,20S8.97,0,20,0s20,8.97,20,20-8.97,20-20,20ZM20,1C9.52,1,1,9.52,1,20s8.52,19,19,19,19-8.52,19-19S30.48,1,20,1Z"/>
      <g id="Group">
        <path id="Path_3" data-name="Path 3" class="cls-3" d="M30.28,12.08c.61.79,1.13,1.66,1.56,2.58l-11.83,8.72-4.97-3.12v-3.73l4.94,3.09s10.3-7.54,10.3-7.54Z"/>
        <g id="Path_4" data-name="Path 4">
          <path class="cls-7" d="M10,20.01c0-.18,0-.33.03-.51l-3-.15c0,.2-.03.43-.03.64,0,3.58,1.46,6.83,3.82,9.18l2.13-2.12c-1.82-1.79-2.95-4.27-2.95-7.03h0Z"/>
          <path class="cls-2" d="M19.99,10.04c.18,0,.33,0,.51.03l.15-2.99c-.2,0-.44-.03-.64-.03-3.59,0-6.84,1.46-9.2,3.81l2.13,2.12c1.79-1.82,4.3-2.94,7.04-2.94h0Z"/>
          <path class="cls-1" d="M19.99,29.99c-.18,0-.33,0-.51-.03l-.15,2.99c.2,0,.44.03.64.03,3.59,0,6.84-1.46,9.2-3.81l-2.13-2.12c-1.79,1.84-4.28,2.94-7.04,2.94Z"/>
        </g>
        <g id="Path_5" data-name="Path 5">
          <path class="cls-6" d="M25.62,11.78l2.54-1.87c-2.23-1.79-5.07-2.89-8.17-2.89h0v2.99c2.1.03,4.05.66,5.64,1.76h0Z"/>
          <path class="cls-3" d="M33,20.01c0-.79-.08-1.56-.2-2.33l-2.79,2.07v.26c0,2.94-1.28,5.58-3.3,7.39l2.02,2.23c2.61-2.35,4.28-5.81,4.28-9.62Z"/>
          <path class="cls-4" d="M19.99,29.99c-2.95,0-5.58-1.28-7.4-3.3l-2.23,2.02c2.38,2.63,5.81,4.27,9.63,4.27v-2.99h0Z"/>
          <path class="cls-5" d="M13.3,12.62l-2.02-2.23c-2.64,2.38-4.28,5.81-4.28,9.62h3c0-2.92,1.28-5.58,3.3-7.39Z"/>
        </g>
      </g>
    </g>
  </g>
</svg>