<?xml version="1.0" encoding="UTF-8"?>
<svg xmlns="http://www.w3.org/2000/svg" viewBox="0 0 39 39">
  <g>
    <g>
      <path d="M29,39H10c-5.51,0-10-4.49-10-10V10C0,4.49,4.49,0,10,0h19c5.51,0,10,4.49,10,10v19c0,5.51-4.49,10-10,10ZM10,1C5.04,1,1,5.04,1,10v19c0,4.96,4.04,9,9,9h19c4.96,0,9-4.04,9-9V10c0-4.96-4.04-9-9-9H10Z"/>
      <path d="M27.07,17.66l-6.36-6.36c-.39-.39-1.02-.39-1.41,0l-6.36,6.36c-.39.39-.39,1.02,0,1.41.39.39,1.02.39,1.41,0l4.66-4.66v13.59c0,.55.45,1,1,1s1-.45,1-1v-13.59l4.66,4.66c.39.39,1.02.39,1.41,0,.39-.39.39-1.02,0-1.41Z"/>
    </g>
  </g>
</svg>