<?xml version="1.0" encoding="UTF-8"?>
<svg id="_Слой_2" data-name="Слой 2" xmlns="http://www.w3.org/2000/svg" viewBox="0 0 40 39.99">
  <defs>
    <style>
      .cls-1 {
        fill: #fff;
      }

      .cls-2 {
        fill: #221f73;
      }
    </style>
  </defs>
  <g id="label">
    <g id="tass">
      <path class="cls-2" d="M40,0v39.99H0V0h40ZM29.34,25.02h-5.42c-1.28,0-2.4,1.07-2.51,2.33-.09,1.08-.14,4.08.04,5.08.12.65.69,1.36,1.29,1.63.11.05.85.28.9.28h5.15v-2.19h-4.87c-.12,0-.22-.29-.23-.41-.11-.85-.07-3.04,0-3.93.01-.17.01-.33.12-.48l4.29-.13,1.25-2.18ZM37.72,25.02h-5.42c-.18,0-.94.23-1.14.32-.88.4-1.3,1.26-1.37,2.19-.08,1.03-.12,4.36.18,5.21.28.77,1.32,1.59,2.14,1.59h5.15v-2.19h-4.87c-.27,0-.31-.39-.32-.59-.08-.9-.1-2.88,0-3.75.04-.34.15-.55.5-.6.62-.08,3.83.13,4.04-.01.08-.33,1.26-2.03,1.11-2.18ZM11.57,25.11H2.46v2.1h3.19v7.12h2.28v-6.99l.23-.14,2.23-.04,1.18-2.06ZM20.05,34.33v-6.99c0-.11-.19-.69-.26-.84-.35-.83-1.18-1.32-2.06-1.4-.51-.04-4.5-.08-4.7.05l-1.18,2.05,5.49.02c.59.13.29.93.34,1.35h-3.69c-2.19,0-3.4,2.88-2.14,4.61.28.39,1.3,1.14,1.78,1.14h6.42Z"/>
      <path class="cls-1" d="M20.05,34.33h-6.42c-.47,0-1.49-.75-1.78-1.14-1.26-1.73-.05-4.61,2.14-4.61h3.69c-.05-.42.25-1.22-.34-1.35l-5.49-.02,1.18-2.05c.2-.12,4.18-.09,4.7-.05.88.08,1.71.57,2.06,1.4.06.14.26.73.26.84v6.99ZM17.77,30.59h-3.42c-.35,0-.69.52-.69.87,0,.26.37.77.6.77h3.51v-1.64Z"/>
      <path class="cls-1" d="M37.72,25.02c.15.15-1.03,1.84-1.11,2.18-.22.14-3.42-.07-4.04.01-.35.05-.46.25-.5.6-.1.87-.08,2.85,0,3.75.02.2.06.59.32.59h4.87v2.19h-5.15c-.83,0-1.87-.82-2.14-1.59-.31-.85-.26-4.18-.18-5.21.07-.93.49-1.79,1.37-2.19.2-.09.96-.32,1.14-.32h5.42Z"/>
      <path class="cls-1" d="M29.34,25.02l-1.25,2.18-4.29.13c-.1.14-.1.31-.12.48-.07.9-.12,3.08,0,3.93.02.12.12.41.23.41h4.87v2.19h-5.15c-.05,0-.8-.24-.9-.28-.6-.27-1.17-.98-1.29-1.63-.18-1-.14-4-.04-5.08.11-1.26,1.22-2.33,2.51-2.33h5.42Z"/>
      <polygon class="cls-1" points="11.57 25.11 10.39 27.17 8.16 27.21 7.93 27.35 7.93 34.33 5.65 34.33 5.65 27.21 2.46 27.21 2.46 25.11 11.57 25.11"/>
      <path class="cls-2" d="M17.77,30.59v1.64h-3.51c-.22,0-.59-.51-.6-.77,0-.34.33-.87.69-.87h3.42Z"/>
    </g>
  </g>
</svg>